<svg width="1200" height="630" viewBox="0 0 1200 630" fill="none" xmlns="http://www.w3.org/2000/svg">
  <rect width="1200" height="630" rx="32" fill="#090C11"/>
  <rect x="28" y="28" width="1144" height="574" rx="28" fill="#10171F" stroke="#243543"/>
  <path d="M72 72H1128" stroke="#87BBC7" stroke-opacity="0.16"/>
  <path d="M72 126H1128" stroke="#87BBC7" stroke-opacity="0.08"/>
  <path d="M72 180H1128" stroke="#87BBC7" stroke-opacity="0.08"/>
  <path d="M72 234H1128" stroke="#87BBC7" stroke-opacity="0.08"/>
  <path d="M72 288H1128" stroke="#87BBC7" stroke-opacity="0.08"/>
  <path d="M72 342H1128" stroke="#87BBC7" stroke-opacity="0.08"/>
  <path d="M72 396H1128" stroke="#87BBC7" stroke-opacity="0.08"/>
  <path d="M72 450H1128" stroke="#87BBC7" stroke-opacity="0.08"/>
  <path d="M72 504H1128" stroke="#87BBC7" stroke-opacity="0.08"/>
  <path d="M72 558H1128" stroke="#87BBC7" stroke-opacity="0.08"/>
  <path d="M150 72V558" stroke="#87BBC7" stroke-opacity="0.08"/>
  <path d="M308 72V558" stroke="#87BBC7" stroke-opacity="0.08"/>
  <path d="M466 72V558" stroke="#87BBC7" stroke-opacity="0.08"/>
  <path d="M624 72V558" stroke="#87BBC7" stroke-opacity="0.08"/>
  <path d="M782 72V558" stroke="#87BBC7" stroke-opacity="0.08"/>
  <path d="M940 72V558" stroke="#87BBC7" stroke-opacity="0.08"/>
  <circle cx="868" cy="194" r="96" fill="url(#g)" fill-opacity="0.55"/>
  <circle cx="878" cy="212" r="140" stroke="#89C5D2" stroke-opacity="0.18"/>
  <circle cx="758" cy="338" r="12" fill="#A8DCE4"/>
  <circle cx="924" cy="282" r="8" fill="#A8DCE4"/>
  <circle cx="998" cy="198" r="10" fill="#A8DCE4"/>
  <path d="M758 338L924 282L998 198" stroke="#9FD5DE" stroke-opacity="0.48" stroke-width="2"/>
  <text x="94" y="214" fill="#F3F7FA" font-family="Arial, sans-serif" font-size="68" font-weight="700">MOMENTIA IO</text>
  <text x="94" y="286" fill="#C2D1D9" font-family="Arial, sans-serif" font-size="30">Precision security for decisive organizations.</text>
  <defs>
    <radialGradient id="g" cx="0" cy="0" r="1" gradientUnits="userSpaceOnUse" gradientTransform="translate(868 194) rotate(90) scale(96)">
      <stop stop-color="#88C1CC"/>
      <stop offset="1" stop-color="#88C1CC" stop-opacity="0"/>
    </radialGradient>
  </defs>
</svg>
